HIERARCHY
ROOT Hips
{
	OFFSET -3.958830 18.904000 13.208200
	CHANNELS 6 Xposition Yposition Zposition Zrotation Yrotation Xrotation 
	JOINT LHipJoint
	{
		OFFSET 0.000000 0.000000 0.000000
		CHANNELS 3 Zrotation Yrotation Xrotation
		JOINT LeftUpLeg
		{
			OFFSET 1.800000 -1.400000 0.085000
			CHANNELS 3 Zrotation Yrotation Xrotation
			JOINT LeftLeg
			{
				OFFSET 2.215000 -6.000000 0.000000
				CHANNELS 3 Zrotation Yrotation Xrotation
				JOINT LeftFoot
				{
					OFFSET 2.500000 -6.900000 0.000000
					CHANNELS 3 Zrotation Yrotation Xrotation
					JOINT LeftToeBase
					{
						OFFSET 0.200000 -0.500000 1.950000
						CHANNELS 3 Zrotation Yrotation Xrotation
						End Site
						{
							OFFSET 0.000000 0.000000 0.000000
						}
					}
				}
			}
		}
	}
	JOINT RHipJoint
	{
		OFFSET 0.000000 0.000000 0.000000
		CHANNELS 3 Zrotation Yrotation Xrotation
		JOINT RightUpLeg
		{
			OFFSET -1.800000 -1.400000 0.085000
			CHANNELS 3 Zrotation Yrotation Xrotation
			JOINT RightLeg
			{
				OFFSET -2.215000 -6.000000 0.000000
				CHANNELS 3 Zrotation Yrotation Xrotation
				JOINT RightFoot
				{
					OFFSET -2.500000 -6.900000 0.000000
					CHANNELS 3 Zrotation Yrotation Xrotation
					JOINT RightToeBase
					{
						OFFSET -0.200000 -0.500000 1.950000
						CHANNELS 3 Zrotation Yrotation Xrotation
						End Site
						{
							OFFSET 0.000000 0.000000 0.000000
						}
					}
				}
			}
		}
	}
	JOINT LowerBack
	{
		OFFSET 0.000000 0.000000 0.000000
		CHANNELS 3 Zrotation Yrotation Xrotation
		JOINT Spine
		{
			OFFSET -0.087000 1.940000 -0.288900
			CHANNELS 3 Zrotation Yrotation Xrotation
			JOINT Spine1
			{
				OFFSET 0.000000 1.950000 0.060000
				CHANNELS 3 Zrotation Yrotation Xrotation
				JOINT Neck
				{
					OFFSET 0.000000 0.000000 0.000000
					CHANNELS 3 Zrotation Yrotation Xrotation
					JOINT Neck1
					{
						OFFSET 0.000000 1.600000 0.340000
						CHANNELS 3 Zrotation Yrotation Xrotation
						JOINT Head
						{
							OFFSET 0.000000 1.667000 -0.240000
							CHANNELS 3 Zrotation Yrotation Xrotation
							End Site
							{
								OFFSET 0.000000 0.000000 0.000000
							}
						}
					}
				}
				JOINT LeftShoulder
				{
					OFFSET 0.000000 0.000000 0.000000
					CHANNELS 3 Zrotation Yrotation Xrotation
					JOINT LeftArm
					{
						OFFSET 2.700000 1.550000 -0.730000
						CHANNELS 3 Zrotation Yrotation Xrotation
						JOINT LeftForeArm
						{
							OFFSET 5.450000 0.000000 0.000000
							CHANNELS 3 Zrotation Yrotation Xrotation
							JOINT LeftHand
							{
								OFFSET 3.450000 0.000000 0.000000
								CHANNELS 3 Zrotation Yrotation Xrotation
								JOINT LeftHandIndex1
								{
									OFFSET 0.750000 0.000000 0.000000
									CHANNELS 3 Zrotation Yrotation Xrotation
									End Site
									{
										OFFSET 0.000000 0.000000 0.000000
									}
								}
							}
						}
					}
				}
				JOINT RightShoulder
				{
					OFFSET 0.000000 0.000000 0.000000
					CHANNELS 3 Zrotation Yrotation Xrotation
					JOINT RightArm
					{
						OFFSET -2.700000 1.550000 -0.730000
						CHANNELS 3 Zrotation Yrotation Xrotation
						JOINT RightForeArm
						{
							OFFSET -5.450000 0.000000 0.000000
							CHANNELS 3 Zrotation Yrotation Xrotation
							JOINT RightHand
							{
								OFFSET -3.450000 0.000000 0.000000
								CHANNELS 3 Zrotation Yrotation Xrotation
								JOINT RightHandIndex1
								{
									OFFSET -0.750000 0.000000 0.000000
									CHANNELS 3 Zrotation Yrotation Xrotation
									End Site
									{
										OFFSET 0.000000 0.000000 0.000000
									}
								}
							}
						}
					}
				}
			}
		}
	}
}
MOTION
Frames: 6
Frame Time: 0.016667
1.788440 17.550270 -3.021920 0.445953 12.370698 -0.008829 -15.229187 13.437763 3.319203 -1.937929 1.553610 9.730320 -9.047607 7.191448 9.153813 -0.302943 5.878295 2.803026 0.395390 -0.200870 0.370630 18.448355 -9.315045 3.417705 10.347306 3.992016 -23.155009 5.811346 -2.939531 3.769837 0.004249 -1.647068 4.086513 -0.053240 0.258440 0.154300 -3.951841 -4.062139 -8.068682 18.537330 -10.377179 12.760910 -6.767938 -8.307658 5.257003 2.490680 -4.804994 -12.566030 -14.891482 5.435713 41.160868 -3.933770 3.003600 -10.625550 -21.582626 -15.599390 4.329400 -28.874806 -13.979430 4.541461 -98.893480 -47.780071 48.403418 -3.574154 3.330027 0.967780 0.070710 -0.092900 0.188400 16.350240 14.485300 10.639220 42.583535 -10.114254 -13.151244 26.700053 38.375486 5.177823 1.707015 -1.355820 -0.454260 0.300920 0.064440 -0.435910 
1.805930 17.527380 -2.971600 0.647287 12.071922 -0.057538 -15.227007 13.465221 3.330820 -1.986005 1.523780 9.767235 -9.252653 7.379982 9.999450 -0.279433 5.956254 2.793412 0.377920 -0.216830 0.356280 18.439672 -9.345939 3.408963 10.252832 3.951880 -23.100536 5.782496 -3.048051 4.508453 0.006903 -1.663481 4.103560 -0.066290 0.279120 0.147070 -3.941350 -4.063244 -8.076625 18.455872 -10.292914 12.827245 -6.823957 -8.168534 5.052821 2.580023 -4.811366 -12.731958 -14.876454 5.269862 41.066983 -4.274440 2.972860 -10.523830 -21.821859 -15.696149 4.440523 -28.129199 -13.449802 4.479081 -99.658869 -47.778949 49.047777 -3.581292 3.303079 0.968720 0.080590 -0.096060 0.199280 16.421128 14.708775 10.859607 42.159008 -10.622875 -13.229773 28.699103 39.524788 5.933991 1.700163 -1.361371 -0.464460 0.323400 0.065640 -0.429220 
1.819980 17.494590 -2.884040 0.930315 11.691422 -0.179013 -15.228097 13.556238 3.316293 -1.899336 1.295213 9.321656 -9.358050 7.788069 12.551134 -0.238787 6.080884 2.735796 0.350180 -0.237000 0.328870 18.414245 -9.384564 3.421909 10.197941 3.945900 -22.976375 5.884447 -3.218394 5.573902 0.003910 -1.680484 4.105297 -0.096180 0.264270 0.139700 -3.903950 -4.141104 -8.096137 18.134895 -10.256976 13.135048 -6.675082 -8.006626 4.670359 2.710276 -4.969613 -13.300567 -15.368037 5.463921 41.391525 -4.331350 3.060910 -10.770800 -21.654069 -15.838330 4.952738 -27.933987 -12.069382 4.028657 -100.487086 -47.957285 49.589883 -3.564688 3.294616 0.979020 0.062840 -0.085500 0.188880 16.076972 15.258049 11.241055 42.725423 -11.080943 -13.781706 30.402233 41.560783 6.833631 1.706111 -1.364313 -0.455610 0.313600 0.078040 -0.423930 
1.831060 17.465690 -2.778300 1.510894 10.798572 -0.370382 -15.240571 13.634229 3.327816 -1.943009 1.032407 8.727132 -9.994411 8.394709 15.350372 -0.216565 6.353403 2.646805 0.303300 -0.305570 0.321750 18.378367 -9.423203 3.427837 10.189733 3.922503 -22.662905 5.557647 -3.346732 6.688225 0.010635 -1.691522 4.114108 -0.129920 0.282870 0.123490 -3.823334 -4.212823 -8.136089 17.140027 -10.050325 13.786470 -6.328843 -7.727791 4.181661 2.787567 -5.121435 -13.602520 -15.613672 5.860558 41.376819 -4.275130 3.335140 -11.418990 -21.765820 -15.656008 5.256121 -27.272031 -10.202771 3.412247 -100.529378 -47.015938 48.360552 -3.574465 3.235479 1.014230 0.058850 -0.091930 0.167460 16.156744 15.524683 11.383377 42.329973 -11.102311 -13.838495 33.956239 43.490111 8.421355 1.712078 -1.339811 -0.494140 0.349500 0.110870 -0.440890 
1.841120 17.453860 -2.663860 1.869101 9.713583 -0.597194 -15.237352 13.712177 3.303395 -1.671276 0.425224 7.170280 -10.772538 9.326659 19.811620 -0.157160 6.745593 2.495411 0.269500 -0.341450 0.301390 18.351355 -9.480764 3.448967 10.144106 3.959277 -22.229612 5.556683 -3.529083 7.900594 -0.001316 -1.744463 4.092944 -0.157200 0.280390 0.112550 -3.773140 -4.238162 -8.168827 16.665243 -9.778333 14.651032 -6.168907 -7.247069 3.303461 2.940518 -5.364373 -13.889579 -16.006637 6.357524 41.251437 -4.206560 3.649180 -12.072200 -21.882850 -15.361101 5.470484 -27.017932 -7.992094 2.461721 -98.057121 -44.158153 43.209091 -3.544728 3.215170 1.039610 0.041370 -0.087390 0.151170 16.085377 15.838167 11.490067 42.691581 -10.863330 -14.010065 36.342798 44.619086 9.473025 1.734398 -1.323201 -0.507420 0.356970 0.134370 -0.444810 
1.841440 17.447110 -2.548600 2.697608 8.318938 -0.773769 -15.266743 13.741995 3.336975 -1.356550 -0.565003 4.814010 -12.526078 10.855233 25.220506 -0.020841 7.420583 2.242622 0.273180 -0.341100 0.312150 18.293656 -9.528123 3.437036 9.604682 3.856431 -21.560143 5.821107 -3.653955 8.392808 -0.019158 -1.819611 4.069288 -0.163700 0.267520 0.119510 -3.621558 -4.247366 -8.249224 14.810814 -9.105268 15.698169 -5.291864 -6.574061 2.858673 3.001981 -5.199833 -13.824180 -15.214496 6.415056 40.618347 -4.478990 4.195240 -12.648540 -22.152673 -15.014105 5.675784 -27.663931 -6.197759 1.500381 -95.902793 -43.096603 40.156267 -3.537395 3.217510 1.043530 0.037340 -0.080790 0.147270 16.381738 15.888628 11.211156 42.725078 -9.804684 -13.795715 37.856511 45.072476 10.119517 1.756461 -1.333778 -0.500130 0.341420 0.128780 -0.451270 
